# Blender v2.83.4 OBJ File: 'TestModels.blend'
# www.blender.org
o Cylinder_Cylinder.001
v 0.000000 0.500000 -0.005834
v 0.002233 0.500000 -0.005390
v 0.004125 0.500000 -0.004125
v 0.005390 0.500000 -0.002232
v 0.005834 0.500000 -0.000000
v 0.005390 0.500000 0.002232
v 0.004125 0.500000 0.004125
v 0.002233 0.500000 0.005390
v 0.000000 0.500000 0.005834
v -0.002232 0.500000 0.005390
v -0.004125 0.500000 0.004125
v -0.005390 0.500000 0.002232
v -0.005834 0.500000 -0.000000
v -0.005390 0.500000 -0.002232
v -0.004125 0.500000 -0.004125
v -0.002232 0.500000 -0.005390
v 0.000000 0.263618 -0.045398
v 0.000000 0.254859 -0.040093
v 0.015343 0.254859 -0.037041
v 0.017373 0.263618 -0.041942
v 0.028350 0.254859 -0.028350
v 0.032101 0.263618 -0.032101
v 0.037041 0.254859 -0.015343
v 0.041942 0.263618 -0.017373
v 0.040093 0.254859 0.000000
v 0.045398 0.263618 0.000000
v 0.037041 0.254859 0.015343
v 0.041942 0.263618 0.017373
v 0.028350 0.254859 0.028350
v 0.032101 0.263618 0.032101
v 0.015343 0.254859 0.037041
v 0.017373 0.263618 0.041942
v 0.000000 0.254859 0.040093
v 0.000000 0.263618 0.045398
v -0.015343 0.254859 0.037041
v -0.017373 0.263618 0.041942
v -0.028350 0.254859 0.028350
v -0.032101 0.263618 0.032101
v -0.037041 0.254859 0.015343
v -0.041942 0.263618 0.017373
v -0.040093 0.254859 -0.000000
v -0.045397 0.263618 -0.000000
v -0.037041 0.254859 -0.015343
v -0.041942 0.263618 -0.017373
v -0.028350 0.254859 -0.028350
v -0.032101 0.263618 -0.032101
v -0.015343 0.254859 -0.037041
v -0.017373 0.263618 -0.041942
v 0.000000 0.318593 -0.134964
v 0.000000 0.310423 -0.133002
v 0.050898 0.310423 -0.122878
v 0.051648 0.318593 -0.124690
v 0.094047 0.310423 -0.094047
v 0.095434 0.318593 -0.095434
v 0.122878 0.310423 -0.050898
v 0.124690 0.318593 -0.051648
v 0.133002 0.310423 0.000000
v 0.134964 0.318593 0.000000
v 0.122878 0.310423 0.050898
v 0.124690 0.318593 0.051648
v 0.094047 0.310423 0.094047
v 0.095434 0.318593 0.095434
v 0.050898 0.310423 0.122878
v 0.051648 0.318593 0.124690
v 0.000000 0.310423 0.133002
v 0.000000 0.318593 0.134964
v -0.050898 0.310423 0.122878
v -0.051648 0.318593 0.124690
v -0.094047 0.310423 0.094047
v -0.095434 0.318593 0.095434
v -0.122878 0.310423 0.050898
v -0.124690 0.318593 0.051648
v -0.133002 0.310423 -0.000000
v -0.134964 0.318593 -0.000000
v -0.122878 0.310423 -0.050898
v -0.124690 0.318593 -0.051648
v -0.094047 0.310423 -0.094047
v -0.095434 0.318593 -0.095434
v -0.050898 0.310423 -0.122878
v -0.051648 0.318593 -0.124690
v 0.000000 -0.500000 -0.032766
v 0.000000 -0.492814 -0.040093
v 0.015343 -0.492814 -0.037041
v 0.012539 -0.500000 -0.030272
v 0.028350 -0.492814 -0.028350
v 0.023169 -0.500000 -0.023169
v 0.037041 -0.492814 -0.015343
v 0.030272 -0.500000 -0.012539
v 0.040093 -0.492814 0.000000
v 0.032766 -0.500000 0.000000
v 0.037041 -0.492814 0.015343
v 0.030272 -0.500000 0.012539
v 0.028350 -0.492814 0.028350
v 0.023169 -0.500000 0.023169
v 0.015343 -0.492814 0.037041
v 0.012539 -0.500000 0.030272
v 0.000000 -0.492814 0.040093
v 0.000000 -0.500000 0.032766
v -0.015343 -0.492814 0.037041
v -0.012539 -0.500000 0.030272
v -0.028350 -0.492814 0.028350
v -0.023169 -0.500000 0.023169
v -0.037041 -0.492814 0.015343
v -0.030272 -0.500000 0.012539
v -0.040093 -0.492814 -0.000000
v -0.032766 -0.500000 -0.000000
v -0.037041 -0.492814 -0.015343
v -0.030272 -0.500000 -0.012539
v -0.028350 -0.492814 -0.028350
v -0.023169 -0.500000 -0.023169
v -0.015343 -0.492814 -0.037041
v -0.012539 -0.500000 -0.030272
vt 0.937500 1.000000
vt 0.875000 0.909296
vt 0.937500 0.909296
vt 0.937500 0.906290
vt 0.875000 0.899655
vt 0.937500 0.899655
vt 0.812500 0.906290
vt 0.812500 0.899655
vt 0.750000 0.899655
vt 0.750000 0.906290
vt 0.687500 0.899655
vt 0.687500 0.906290
vt 0.625000 0.899655
vt 0.625000 0.906290
vt 0.562500 0.899655
vt 0.562500 0.906290
vt 0.500000 0.899655
vt 0.500000 0.906290
vt 0.437500 0.899655
vt 0.375000 0.906290
vt 0.375000 0.899655
vt 0.312500 0.899655
vt 0.312500 0.906290
vt 0.250000 0.899655
vt 0.250000 0.906290
vt 0.187500 0.899655
vt 0.125000 0.906290
vt 0.125000 0.899655
vt 0.419706 0.419706
vt 0.080294 0.419706
vt 0.080294 0.080294
vt 0.062500 0.899655
vt 1.000000 0.899655
vt 0.062500 0.896145
vt 0.000000 0.503771
vt 0.062500 0.503771
vt 1.000000 1.000000
vt 1.000000 0.909296
vt 0.125000 1.000000
vt 0.062500 0.909296
vt 0.125000 0.909296
vt 0.187500 1.000000
vt 0.187500 0.909296
vt 0.250000 1.000000
vt 0.250000 0.909296
vt 0.312500 0.909296
vt 0.375000 1.000000
vt 0.375000 0.909296
vt 0.437500 1.000000
vt 0.437500 0.909296
vt 0.500000 1.000000
vt 0.500000 0.909296
vt 0.562500 1.000000
vt 0.562500 0.909296
vt 0.625000 1.000000
vt 0.625000 0.909296
vt 0.687500 0.909296
vt 0.750000 0.909296
vt 0.687500 1.000000
vt 0.812500 1.000000
vt 0.812500 0.909296
vt 0.875000 1.000000
vt 0.062500 0.906290
vt 0.000000 0.899655
vt 0.875000 0.896145
vt 0.812500 0.503771
vt 0.875000 0.503771
vt 0.125000 0.896145
vt 0.125000 0.503771
vt 0.187500 0.896145
vt 0.187500 0.503771
vt 0.250000 0.896145
vt 0.250000 0.503771
vt 0.312500 0.896145
vt 0.312500 0.503771
vt 0.375000 0.896145
vt 0.375000 0.503771
vt 0.437500 0.896145
vt 0.437500 0.503771
vt 0.500000 0.896145
vt 0.500000 0.503771
vt 0.562500 0.896145
vt 0.562500 0.503771
vt 0.625000 0.896145
vt 0.625000 0.503771
vt 0.687500 0.896145
vt 0.687500 0.503771
vt 0.750000 0.896145
vt 0.750000 0.503771
vt 0.812500 0.896145
vt 0.937500 0.896145
vt 0.937500 0.503771
vt 1.000000 0.896145
vt 0.931212 0.325061
vt 0.825061 0.068788
vt 0.568788 0.174939
vt 0.000000 0.906290
vt 0.187500 0.906290
vt 0.437500 0.906290
vt 0.875000 0.906290
vt 1.000000 0.906290
vt 0.000000 1.000000
vt 0.000000 0.909296
vt 0.994289 0.500000
vt 1.000000 0.503771
vt 0.880711 0.500000
vt 0.931789 0.500000
vt 0.869289 0.500000
vt 0.755711 0.500000
vt 0.806789 0.500000
vt 0.744289 0.500000
vt 0.630711 0.500000
vt 0.681789 0.500000
vt 0.619289 0.500000
vt 0.505711 0.500000
vt 0.556789 0.500000
vt 0.494289 0.500000
vt 0.431789 0.500000
vt 0.318211 0.500000
vt 0.369289 0.500000
vt 0.306789 0.500000
vt 0.244289 0.500000
vt 0.181789 0.500000
vt 0.068211 0.500000
vt 0.119289 0.500000
vt 0.056789 0.500000
vt 0.341844 0.471731
vt 0.250000 0.490000
vt 0.158156 0.471731
vt 0.028269 0.341844
vt 0.010000 0.250000
vt 0.028269 0.158156
vt 0.158156 0.028269
vt 0.250000 0.010000
vt 0.341844 0.028269
vt 0.419706 0.080294
vt 0.471731 0.158156
vt 0.490000 0.250000
vt 0.471731 0.341844
vt 0.000000 0.896144
vt 0.062500 1.000000
vt 0.312500 1.000000
vt 0.750000 1.000000
vt 0.674940 0.431212
vt 0.750000 0.446143
vt 0.825060 0.431212
vt 0.888694 0.388694
vt 0.946143 0.250000
vt 0.931212 0.174939
vt 0.888694 0.111306
vt 0.750000 0.053857
vt 0.674940 0.068788
vt 0.611306 0.111306
vt 0.553857 0.250000
vt 0.568788 0.325061
vt 0.611306 0.388694
vt 0.943211 0.500000
vt 0.818211 0.500000
vt 0.693211 0.500000
vt 0.568211 0.500000
vt 0.443211 0.500000
vt 0.380711 0.500000
vt 0.255711 0.500000
vt 0.193211 0.500000
vt 0.130711 0.500000
vt 0.005711 0.500000
vn 0.1918 0.8653 -0.4630
vn 0.6954 0.1813 -0.6954
vn 0.3763 0.1813 -0.9085
vn 0.3095 -0.5879 -0.7474
vn 0.4735 -0.7427 -0.4735
vn 0.2562 -0.7427 -0.6186
vn 0.7474 -0.5879 -0.3095
vn 0.6186 -0.7427 -0.2562
vn 0.6696 -0.7427 0.0000
vn 0.8089 -0.5879 0.0000
vn 0.6186 -0.7427 0.2562
vn 0.7474 -0.5879 0.3095
vn 0.4735 -0.7427 0.4735
vn 0.5720 -0.5879 0.5720
vn 0.2562 -0.7427 0.6186
vn 0.3095 -0.5879 0.7474
vn 0.0000 -0.7427 0.6696
vn 0.0000 -0.5879 0.8089
vn -0.2562 -0.7427 0.6186
vn -0.5720 -0.5879 0.5720
vn -0.4735 -0.7427 0.4735
vn -0.6186 -0.7427 0.2562
vn -0.7474 -0.5879 0.3095
vn -0.6696 -0.7427 0.0000
vn -0.8089 -0.5879 0.0000
vn -0.6186 -0.7427 -0.2562
vn -0.5720 -0.5879 -0.5720
vn -0.4735 -0.7427 -0.4735
vn 0.3544 0.8653 -0.3544
vn -0.3544 0.8653 -0.3544
vn -0.3544 0.8653 0.3544
vn -0.2562 -0.7427 -0.6186
vn 0.0000 -0.7427 -0.6696
vn -0.3676 -0.2780 -0.8874
vn 0.0000 -0.3710 -0.9286
vn -0.3554 -0.3710 -0.8579
vn 0.0000 0.8653 -0.5011
vn 0.0000 0.1813 -0.9834
vn -0.3763 0.1813 -0.9085
vn -0.6954 0.1813 -0.6954
vn -0.4630 0.8653 -0.1918
vn -0.9085 0.1813 -0.3763
vn -0.5012 0.8653 0.0000
vn -0.9834 0.1813 0.0000
vn -0.9085 0.1813 0.3763
vn -0.6954 0.1813 0.6954
vn -0.1918 0.8653 0.4630
vn -0.3763 0.1813 0.9085
vn 0.0000 0.8653 0.5012
vn 0.0000 0.1813 0.9834
vn 0.1918 0.8653 0.4630
vn 0.3763 0.1813 0.9085
vn 0.3544 0.8653 0.3544
vn 0.6954 0.1813 0.6954
vn 0.9085 0.1813 0.3763
vn 0.9834 0.1813 0.0000
vn 0.4630 0.8653 0.1918
vn 0.4630 0.8653 -0.1918
vn 0.9085 0.1813 -0.3763
vn -0.3095 -0.5879 -0.7474
vn 0.6792 -0.2780 -0.6792
vn 0.8579 -0.3710 -0.3554
vn 0.6566 -0.3710 -0.6566
vn -0.6792 -0.2780 -0.6792
vn -0.6566 -0.3710 -0.6566
vn -0.8874 -0.2780 -0.3676
vn -0.8579 -0.3710 -0.3554
vn -0.9606 -0.2780 0.0000
vn -0.9286 -0.3710 0.0000
vn -0.8874 -0.2780 0.3676
vn -0.8579 -0.3710 0.3554
vn -0.6792 -0.2780 0.6792
vn -0.6566 -0.3710 0.6566
vn -0.3676 -0.2780 0.8874
vn -0.3554 -0.3710 0.8579
vn 0.0000 -0.2780 0.9606
vn 0.0000 -0.3710 0.9286
vn 0.3676 -0.2780 0.8874
vn 0.3554 -0.3710 0.8579
vn 0.6792 -0.2780 0.6792
vn 0.6566 -0.3710 0.6566
vn 0.8874 -0.2780 0.3676
vn 0.8579 -0.3710 0.3554
vn 0.9606 -0.2780 0.0000
vn 0.9286 -0.3710 0.0000
vn 0.8874 -0.2780 -0.3676
vn 0.3676 -0.2780 -0.8874
vn 0.3554 -0.3710 -0.8579
vn 0.0000 -0.2780 -0.9606
vn 0.3854 -0.9088 -0.1596
vn 0.1596 -0.9088 0.3854
vn -0.3854 -0.9088 0.1596
vn 0.0000 -0.5879 -0.8089
vn -0.7474 -0.5879 -0.3095
vn -0.3095 -0.5879 0.7474
vn 0.5720 -0.5879 -0.5720
vn 0.0000 -0.9088 -0.4172
vn 0.2950 -0.9088 -0.2950
vn 0.1596 -0.9088 -0.3854
vn 0.4172 -0.9088 0.0000
vn 0.2950 -0.9088 0.2950
vn 0.3854 -0.9088 0.1596
vn 0.0000 -0.9088 0.4172
vn -0.1596 -0.9088 0.3854
vn -0.2950 -0.9088 0.2950
vn -0.4172 -0.9088 0.0000
vn -0.3854 -0.9088 -0.1596
vn -0.1596 -0.9088 -0.3854
vn -0.2950 -0.9088 -0.2950
vn -0.1918 0.8654 -0.4630
vn -0.4630 0.8653 0.1918
vn 0.5012 0.8653 0.0000
s 1
f 2/1/1 54/2/2 52/3/3
f 51/4/4 22/5/5 20/6/6
f 22/5/5 55/7/7 24/8/8
f 55/7/7 26/9/9 24/8/8
f 57/10/10 28/11/11 26/9/9
f 59/12/12 30/13/13 28/11/11
f 61/14/14 32/15/15 30/13/13
f 63/16/16 34/17/17 32/15/15
f 65/18/18 36/19/19 34/17/17
f 36/19/19 69/20/20 38/21/21
f 69/20/20 40/22/22 38/21/21
f 71/23/23 42/24/24 40/22/22
f 73/25/25 44/26/26 42/24/24
f 44/26/26 77/27/27 46/28/28
f 3/29/29 15/30/30 11/31/31
f 77/27/27 48/32/32 46/28/28
f 17/33/33 51/4/4 20/6/6
f 47/34/34 82/35/35 111/36/36
f 1/37/37 52/3/3 49/38/38
f 15/39/30 80/40/39 78/41/40
f 14/42/41 78/41/40 76/43/42
f 13/44/43 76/43/42 74/45/44
f 72/46/45 13/44/43 74/45/44
f 11/47/31 72/46/45 70/48/46
f 10/49/47 70/48/46 68/50/48
f 9/51/49 68/50/48 66/52/50
f 8/53/51 66/52/50 64/54/52
f 7/55/53 64/54/52 62/56/54
f 60/57/55 7/55/53 62/56/54
f 58/58/56 6/59/57 60/57/55
f 4/60/58 58/58/56 56/61/59
f 3/62/29 56/61/59 54/2/2
f 79/63/60 17/64/33 48/32/32
f 21/65/61 87/66/62 85/67/63
f 45/68/64 111/36/36 109/69/65
f 43/70/66 109/69/65 107/71/67
f 41/72/68 107/71/67 105/73/69
f 39/74/70 105/73/69 103/75/71
f 37/76/72 103/75/71 101/77/73
f 35/78/74 101/77/73 99/79/75
f 33/80/76 99/79/75 97/81/77
f 31/82/78 97/81/77 95/83/79
f 29/84/80 95/83/79 93/85/81
f 27/86/82 93/85/81 91/87/83
f 25/88/84 91/87/83 89/89/85
f 23/90/86 89/89/85 87/66/62
f 19/91/87 85/67/63 83/92/88
f 17/64/33 47/34/34 48/32/32
f 46/28/28 47/34/34 45/68/64
f 46/28/28 43/70/66 44/26/26
f 42/24/24 43/70/66 41/72/68
f 40/22/22 41/72/68 39/74/70
f 40/22/22 37/76/72 38/21/21
f 38/21/21 35/78/74 36/19/19
f 36/19/19 33/80/76 34/17/17
f 32/15/15 33/80/76 31/82/78
f 32/15/15 29/84/80 30/13/13
f 28/11/11 29/84/80 27/86/82
f 28/11/11 25/88/84 26/9/9
f 24/8/8 25/88/84 23/90/86
f 24/8/8 21/65/61 22/5/5
f 22/5/5 19/91/87 20/6/6
f 20/6/6 18/93/89 17/33/33
f 88/94/90 96/95/91 104/96/92
f 80/40/39 50/97/93 79/63/60
f 78/41/40 79/63/60 77/27/27
f 78/41/40 75/98/94 76/43/42
f 74/45/44 75/98/94 73/25/25
f 74/45/44 71/23/23 72/46/45
f 70/48/46 71/23/23 69/20/20
f 70/48/46 67/99/95 68/50/48
f 68/50/48 65/18/18 66/52/50
f 64/54/52 65/18/18 63/16/16
f 62/56/54 63/16/16 61/14/14
f 62/56/54 59/12/12 60/57/55
f 60/57/55 57/10/10 58/58/56
f 58/58/56 55/7/7 56/61/59
f 56/61/59 53/100/96 54/2/2
f 54/2/2 51/4/4 52/3/3
f 52/3/3 50/101/93 49/38/38
f 80/40/39 1/102/37 49/103/38
f 83/92/88 81/104/97 82/105/35
f 83/92/88 86/106/98 84/107/99
f 87/66/62 86/108/98 85/67/63
f 87/66/62 90/109/100 88/110/90
f 91/87/83 90/111/100 89/89/85
f 91/87/83 94/112/101 92/113/102
f 95/83/79 94/114/101 93/85/81
f 95/83/79 98/115/103 96/116/91
f 99/79/75 98/117/103 97/81/77
f 101/77/73 100/118/104 99/79/75
f 101/77/73 104/119/92 102/120/105
f 105/73/69 104/121/92 103/75/71
f 107/71/67 106/122/106 105/73/69
f 109/69/65 108/123/107 107/71/67
f 109/69/65 112/124/108 110/125/109
f 82/35/35 112/126/108 111/36/36
f 18/93/89 83/92/88 82/105/35
f 2/1/1 3/62/29 54/2/2
f 51/4/4 53/100/96 22/5/5
f 22/5/5 53/100/96 55/7/7
f 55/7/7 57/10/10 26/9/9
f 57/10/10 59/12/12 28/11/11
f 59/12/12 61/14/14 30/13/13
f 61/14/14 63/16/16 32/15/15
f 63/16/16 65/18/18 34/17/17
f 65/18/18 67/99/95 36/19/19
f 36/19/19 67/99/95 69/20/20
f 69/20/20 71/23/23 40/22/22
f 71/23/23 73/25/25 42/24/24
f 73/25/25 75/98/94 44/26/26
f 44/26/26 75/98/94 77/27/27
f 3/29/29 2/127/1 15/30/30
f 2/127/1 1/128/37 15/30/30
f 1/128/37 16/129/110 15/30/30
f 15/30/30 14/130/41 11/31/31
f 14/130/41 13/131/43 11/31/31
f 13/131/43 12/132/111 11/31/31
f 11/31/31 10/133/47 9/134/49
f 9/134/49 8/135/51 7/136/53
f 7/136/53 6/137/57 5/138/112
f 5/138/112 4/139/58 3/29/29
f 11/31/31 9/134/49 7/136/53
f 7/136/53 5/138/112 11/31/31
f 5/138/112 3/29/29 11/31/31
f 77/27/27 79/63/60 48/32/32
f 17/33/33 50/101/93 51/4/4
f 47/34/34 18/140/89 82/35/35
f 1/37/37 2/1/1 52/3/3
f 15/39/30 16/141/110 80/40/39
f 14/42/41 15/39/30 78/41/40
f 13/44/43 14/42/41 76/43/42
f 72/46/45 12/142/111 13/44/43
f 11/47/31 12/142/111 72/46/45
f 10/49/47 11/47/31 70/48/46
f 9/51/49 10/49/47 68/50/48
f 8/53/51 9/51/49 66/52/50
f 7/55/53 8/53/51 64/54/52
f 60/57/55 6/59/57 7/55/53
f 58/58/56 5/143/112 6/59/57
f 4/60/58 5/143/112 58/58/56
f 3/62/29 4/60/58 56/61/59
f 79/63/60 50/97/93 17/64/33
f 21/65/61 23/90/86 87/66/62
f 45/68/64 47/34/34 111/36/36
f 43/70/66 45/68/64 109/69/65
f 41/72/68 43/70/66 107/71/67
f 39/74/70 41/72/68 105/73/69
f 37/76/72 39/74/70 103/75/71
f 35/78/74 37/76/72 101/77/73
f 33/80/76 35/78/74 99/79/75
f 31/82/78 33/80/76 97/81/77
f 29/84/80 31/82/78 95/83/79
f 27/86/82 29/84/80 93/85/81
f 25/88/84 27/86/82 91/87/83
f 23/90/86 25/88/84 89/89/85
f 19/91/87 21/65/61 85/67/63
f 17/64/33 18/140/89 47/34/34
f 46/28/28 48/32/32 47/34/34
f 46/28/28 45/68/64 43/70/66
f 42/24/24 44/26/26 43/70/66
f 40/22/22 42/24/24 41/72/68
f 40/22/22 39/74/70 37/76/72
f 38/21/21 37/76/72 35/78/74
f 36/19/19 35/78/74 33/80/76
f 32/15/15 34/17/17 33/80/76
f 32/15/15 31/82/78 29/84/80
f 28/11/11 30/13/13 29/84/80
f 28/11/11 27/86/82 25/88/84
f 24/8/8 26/9/9 25/88/84
f 24/8/8 23/90/86 21/65/61
f 22/5/5 21/65/61 19/91/87
f 20/6/6 19/91/87 18/93/89
f 112/144/108 81/145/97 84/146/99
f 84/146/99 86/147/98 88/94/90
f 88/94/90 90/148/100 92/149/102
f 92/149/102 94/150/101 96/95/91
f 96/95/91 98/151/103 100/152/104
f 100/152/104 102/153/105 96/95/91
f 102/153/105 104/96/92 96/95/91
f 104/96/92 106/154/106 112/144/108
f 106/154/106 108/155/107 112/144/108
f 108/155/107 110/156/109 112/144/108
f 112/144/108 84/146/99 88/94/90
f 88/94/90 92/149/102 96/95/91
f 112/144/108 88/94/90 104/96/92
f 80/40/39 49/103/38 50/97/93
f 78/41/40 80/40/39 79/63/60
f 78/41/40 77/27/27 75/98/94
f 74/45/44 76/43/42 75/98/94
f 74/45/44 73/25/25 71/23/23
f 70/48/46 72/46/45 71/23/23
f 70/48/46 69/20/20 67/99/95
f 68/50/48 67/99/95 65/18/18
f 64/54/52 66/52/50 65/18/18
f 62/56/54 64/54/52 63/16/16
f 62/56/54 61/14/14 59/12/12
f 60/57/55 59/12/12 57/10/10
f 58/58/56 57/10/10 55/7/7
f 56/61/59 55/7/7 53/100/96
f 54/2/2 53/100/96 51/4/4
f 52/3/3 51/4/4 50/101/93
f 80/40/39 16/141/110 1/102/37
f 83/92/88 84/157/99 81/104/97
f 83/92/88 85/67/63 86/106/98
f 87/66/62 88/158/90 86/108/98
f 87/66/62 89/89/85 90/109/100
f 91/87/83 92/159/102 90/111/100
f 91/87/83 93/85/81 94/112/101
f 95/83/79 96/160/91 94/114/101
f 95/83/79 97/81/77 98/115/103
f 99/79/75 100/161/104 98/117/103
f 101/77/73 102/162/105 100/118/104
f 101/77/73 103/75/71 104/119/92
f 105/73/69 106/163/106 104/121/92
f 107/71/67 108/164/107 106/122/106
f 109/69/65 110/165/109 108/123/107
f 109/69/65 111/36/36 112/124/108
f 82/35/35 81/166/97 112/126/108
f 18/93/89 19/91/87 83/92/88
