# Blender v2.91.2 OBJ File: 'intenal_models.blend'
# www.blender.org
o misssing_mesh_Cube.004
v 1.753026 4.097829 0.500000
v 1.753026 4.097829 -0.500000
v 2.751503 4.097829 -0.500000
v 2.751503 4.097829 0.500000
v 0.000000 0.707107 0.500000
v 0.000000 0.707107 -0.500000
v -1.753026 4.097829 0.500000
v -1.753026 4.097829 -0.500000
v -2.751503 4.097829 -0.500000
v -2.751503 4.097829 0.500000
v 0.707107 0.000000 0.500000
v 0.707107 0.000000 -0.500000
v 1.753026 -4.097829 0.500000
v 1.753026 -4.097829 -0.500000
v 2.751503 -4.097829 -0.500000
v 2.751503 -4.097829 0.500000
v 0.000000 -0.707107 0.500000
v 0.000000 -0.707107 -0.500000
v -0.707107 0.000000 0.500000
v -0.707107 0.000000 -0.500000
v -1.753026 -4.097829 0.500000
v -1.753026 -4.097829 -0.500000
v -2.751503 -4.097829 -0.500000
v -2.751503 -4.097829 0.500000
vt 0.875000 0.500000
vt 0.625000 0.750000
vt 0.625000 0.500000
vt 0.625000 0.500000
vt 0.625000 0.750000
vt 0.875000 0.750000
vt 0.875000 0.500000
vt 0.875000 0.750000
vt 0.625000 0.750000
vt 0.875000 0.500000
vt 0.625000 0.500000
vt 0.625000 0.500000
vt 0.625000 0.750000
vt 0.875000 0.750000
vt 0.625000 0.750000
vt 0.875000 0.500000
vt 0.625000 0.500000
vt 0.875000 0.750000
vt 0.875000 0.500000
vt 0.875000 0.750000
vt 0.875000 0.500000
vt 0.625000 0.750000
vt 0.625000 0.500000
vt 0.875000 0.750000
vn 0.0000 1.0000 -0.0000
vn 0.8948 -0.4464 0.0000
vn -0.8883 0.4593 0.0000
vn 0.0000 0.0000 1.0000
vn 0.0000 -0.0000 -1.0000
vn -0.8948 -0.4464 0.0000
vn 0.8883 0.4593 0.0000
vn 0.0000 -1.0000 0.0000
vn 0.8948 0.4464 0.0000
vn -0.8883 -0.4593 0.0000
vn -0.8948 0.4464 0.0000
vn 0.8883 -0.4593 0.0000
s off
f 2/1/1 4/2/1 3/3/1
f 12/4/2 4/2/2 11/5/2
f 5/6/3 2/1/3 6/7/3
f 11/5/4 1/8/4 5/6/4
f 12/4/5 2/1/5 3/3/5
f 10/9/1 8/10/1 9/11/1
f 10/9/6 20/12/6 19/13/6
f 8/10/7 5/6/7 6/7/7
f 7/14/4 19/13/4 5/6/4
f 20/12/5 8/10/5 6/7/5
f 12/4/5 20/12/5 6/7/5
f 16/15/8 14/16/8 15/17/8
f 16/15/9 12/4/9 11/5/9
f 14/16/10 17/18/10 18/19/10
f 13/20/4 11/5/4 17/18/4
f 12/4/5 14/16/5 18/19/5
f 5/6/4 17/18/4 11/5/4
f 22/21/8 24/22/8 23/23/8
f 20/12/11 24/22/11 19/13/11
f 17/18/12 22/21/12 18/19/12
f 19/13/4 21/24/4 17/18/4
f 20/12/5 22/21/5 23/23/5
f 2/1/1 1/8/1 4/2/1
f 12/4/2 3/3/2 4/2/2
f 5/6/3 1/8/3 2/1/3
f 11/5/4 4/2/4 1/8/4
f 12/4/5 6/7/5 2/1/5
f 10/9/1 7/14/1 8/10/1
f 10/9/6 9/11/6 20/12/6
f 8/10/7 7/14/7 5/6/7
f 7/14/4 10/9/4 19/13/4
f 20/12/5 9/11/5 8/10/5
f 12/4/5 18/19/5 20/12/5
f 16/15/8 13/20/8 14/16/8
f 16/15/9 15/17/9 12/4/9
f 14/16/10 13/20/10 17/18/10
f 13/20/4 16/15/4 11/5/4
f 12/4/5 15/17/5 14/16/5
f 5/6/4 19/13/4 17/18/4
f 22/21/8 21/24/8 24/22/8
f 20/12/11 23/23/11 24/22/11
f 17/18/12 21/24/12 22/21/12
f 19/13/4 24/22/4 21/24/4
f 20/12/5 18/19/5 22/21/5
