# Blender v2.93.3 OBJ File: 'intenal_models.blend'
# www.blender.org
o arrow_down_Arrow_Up.001_Cylinder.002
v 0.038736 -0.238945 0.093517
v 0.003094 -0.375000 0.003094
v 0.071576 -0.238945 0.071575
v 0.038174 -0.232817 0.092158
v 0.024076 -0.197713 0.024076
v 0.013030 -0.197713 0.031456
v 0.092158 -0.232817 0.038173
v 0.031457 -0.197713 0.013030
v 0.034049 -0.197713 -0.000000
v 0.099752 -0.232817 -0.000000
v 0.031457 -0.197713 -0.013030
v 0.092158 -0.232817 -0.038174
v 0.024076 -0.197713 -0.024076
v 0.038174 -0.232817 -0.092159
v 0.013030 -0.197713 -0.031457
v 0.000000 -0.197713 -0.034049
v 0.000000 -0.232817 -0.099752
v -0.013030 -0.197713 -0.031457
v -0.070535 -0.232817 -0.070535
v -0.024076 -0.197713 -0.024076
v -0.031457 -0.197713 -0.013030
v -0.092158 -0.232817 -0.038174
v -0.034048 -0.197713 -0.000000
v -0.099752 -0.232817 -0.000000
v -0.031457 -0.197713 0.013030
v -0.070535 -0.232817 0.070535
v -0.024076 -0.197713 0.024076
v -0.003094 -0.375000 0.003094
v -0.003094 -0.375000 -0.003094
v -0.038174 -0.232817 0.092158
v -0.013030 -0.197713 0.031456
v 0.000000 -0.232817 0.099751
v 0.000000 -0.197713 0.034048
v -0.011507 -0.191144 0.027781
v 0.000000 0.369610 0.030070
v -0.011507 0.369610 0.027781
v 0.000000 -0.375000 0.004375
v 0.000000 -0.238945 0.101223
v -0.038736 -0.238945 0.093517
v -0.071576 -0.238945 0.071575
v -0.004043 -0.375000 0.001674
v -0.093518 -0.238945 0.038736
v -0.004376 -0.375000 -0.000000
v -0.101223 -0.238945 -0.000000
v -0.093518 -0.238944 -0.038737
v -0.071576 -0.238944 -0.071576
v -0.001674 -0.375000 -0.004043
v -0.038736 -0.238944 -0.093518
v 0.000000 -0.375000 -0.004376
v 0.000000 -0.238944 -0.101223
v 0.001675 -0.375000 -0.004043
v 0.038736 -0.238944 -0.093518
v 0.003094 -0.375000 -0.003094
v 0.071576 -0.238944 -0.071576
v 0.004043 -0.375000 -0.001675
v 0.093518 -0.238944 -0.038737
v 0.004376 -0.375000 -0.000000
v 0.101223 -0.238945 -0.000000
v 0.004043 -0.375000 0.001674
v 0.093518 -0.238945 0.038736
v 0.021263 -0.191144 0.021262
v 0.027781 0.369610 0.011507
v 0.021263 0.369610 0.021263
v -0.021263 -0.191144 0.021262
v -0.021263 0.369610 0.021263
v -0.027781 -0.191144 0.011507
v -0.027781 0.369610 0.011507
v -0.030070 -0.191144 -0.000000
v -0.030070 0.369610 0.000000
v -0.027781 -0.191144 -0.011507
v -0.027781 0.369610 -0.011507
v -0.021263 -0.191144 -0.021263
v -0.021263 0.369610 -0.021262
v -0.011507 -0.191144 -0.027781
v -0.011507 0.369610 -0.027781
v 0.000000 0.369610 -0.030070
v 0.011507 -0.191144 -0.027781
v 0.011507 0.369610 -0.027781
v 0.021263 -0.191144 -0.021263
v 0.021263 0.369610 -0.021262
v 0.027781 -0.191144 -0.011507
v 0.027781 0.369610 -0.011507
v 0.030070 -0.191144 -0.000000
v 0.030070 0.369610 0.000000
v 0.027781 -0.191144 0.011507
v 0.011507 -0.191144 0.027781
v 0.011507 0.369610 0.027781
v 0.000000 -0.191144 -0.030070
v 0.000000 -0.191144 0.030070
v 0.022704 0.375000 0.009404
v 0.009404 0.375000 -0.022704
v -0.022704 0.375000 -0.009404
v -0.092158 -0.232817 0.038173
v -0.038174 -0.232817 -0.092159
v 0.070535 -0.232817 -0.070535
v 0.070535 -0.232817 0.070535
v -0.001674 -0.375000 0.004042
v 0.000000 0.375000 0.024575
v 0.017377 0.375000 0.017377
v 0.009404 0.375000 0.022704
v 0.024574 0.375000 0.000000
v 0.017377 0.375000 -0.017377
v 0.022704 0.375000 -0.009404
v 0.000000 0.375000 -0.024574
v -0.009404 0.375000 -0.022704
v -0.017377 0.375000 -0.017377
v -0.024574 0.375000 0.000000
v -0.022704 0.375000 0.009404
v -0.017377 0.375000 0.017377
v -0.009404 0.375000 0.022704
v 0.001675 -0.375000 0.004042
v -0.004043 -0.375000 -0.001675
vt 0.937500 0.909296
vt 0.875000 1.000000
vt 0.875000 0.909296
vt 0.937500 0.906290
vt 0.875000 0.899655
vt 0.937500 0.899655
vt 0.812500 0.906290
vt 0.812500 0.899655
vt 0.750000 0.899655
vt 0.750000 0.906290
vt 0.687500 0.899655
vt 0.687500 0.906290
vt 0.625000 0.899655
vt 0.562500 0.906290
vt 0.562500 0.899655
vt 0.500000 0.899655
vt 0.500000 0.906290
vt 0.437500 0.899655
vt 0.375000 0.906290
vt 0.375000 0.899655
vt 0.312500 0.899655
vt 0.312500 0.906290
vt 0.250000 0.899655
vt 0.250000 0.906290
vt 0.187500 0.899655
vt 0.125000 0.906290
vt 0.125000 0.899655
vt 0.419706 0.419706
vt 0.080294 0.419706
vt 0.080294 0.080294
vt 0.062500 0.906290
vt 0.062500 0.899655
vt 1.000000 0.906290
vt 1.000000 0.899655
vt 0.062500 0.896145
vt 0.000000 0.503771
vt 0.062500 0.503771
vt 1.000000 1.000000
vt 1.000000 0.909296
vt 0.125000 1.000000
vt 0.062500 0.909296
vt 0.125000 0.909296
vt 0.187500 1.000000
vt 0.187500 0.909296
vt 0.250000 1.000000
vt 0.250000 0.909296
vt 0.312500 0.909296
vt 0.375000 1.000000
vt 0.375000 0.909296
vt 0.437500 1.000000
vt 0.437500 0.909296
vt 0.500000 1.000000
vt 0.500000 0.909296
vt 0.562500 1.000000
vt 0.562500 0.909296
vt 0.625000 1.000000
vt 0.625000 0.909296
vt 0.687500 1.000000
vt 0.687500 0.909296
vt 0.750000 1.000000
vt 0.750000 0.909296
vt 0.812500 1.000000
vt 0.812500 0.909296
vt 0.000000 0.899655
vt 0.875000 0.896145
vt 0.812500 0.503771
vt 0.875000 0.503771
vt 0.125000 0.896145
vt 0.125000 0.503771
vt 0.187500 0.896145
vt 0.187500 0.503771
vt 0.250000 0.896145
vt 0.250000 0.503771
vt 0.312500 0.896145
vt 0.312500 0.503771
vt 0.375000 0.896145
vt 0.375000 0.503771
vt 0.437500 0.896145
vt 0.437500 0.503771
vt 0.500000 0.503771
vt 0.562500 0.896145
vt 0.562500 0.503771
vt 0.625000 0.896145
vt 0.625000 0.503771
vt 0.687500 0.896145
vt 0.687500 0.503771
vt 0.750000 0.896145
vt 0.750000 0.503771
vt 0.812500 0.896145
vt 0.937500 0.896145
vt 0.937500 0.503771
vt 0.500000 0.896145
vt 1.000000 0.896145
vt 0.931212 0.325061
vt 0.825061 0.068788
vt 0.568788 0.174939
vt 0.000000 0.906290
vt 0.187500 0.906290
vt 0.437500 0.906290
vt 0.625000 0.906290
vt 0.875000 0.906290
vt 0.062500 1.000000
vt 0.000000 0.909296
vt 0.994289 0.500000
vt 1.000000 0.503771
vt 0.880711 0.500000
vt 0.931789 0.500000
vt 0.869289 0.500000
vt 0.755711 0.500000
vt 0.806789 0.500000
vt 0.744289 0.500000
vt 0.630711 0.500000
vt 0.681789 0.500000
vt 0.619289 0.500000
vt 0.505711 0.500000
vt 0.556789 0.500000
vt 0.443211 0.500000
vt 0.494289 0.500000
vt 0.431789 0.500000
vt 0.318211 0.500000
vt 0.369289 0.500000
vt 0.306789 0.500000
vt 0.244289 0.500000
vt 0.181789 0.500000
vt 0.119289 0.500000
vt 0.056789 0.500000
vt 0.937500 1.000000
vt 0.341844 0.471731
vt 0.250000 0.490000
vt 0.158156 0.471731
vt 0.028269 0.341844
vt 0.010000 0.250000
vt 0.028269 0.158156
vt 0.158156 0.028269
vt 0.250000 0.010000
vt 0.341844 0.028269
vt 0.419706 0.080294
vt 0.471731 0.158156
vt 0.490000 0.250000
vt 0.471731 0.341844
vt 0.000000 0.896144
vt 0.312500 1.000000
vt 0.674940 0.431212
vt 0.750000 0.446143
vt 0.825060 0.431212
vt 0.888694 0.388694
vt 0.946143 0.250000
vt 0.931212 0.174939
vt 0.888694 0.111306
vt 0.750000 0.053857
vt 0.674940 0.068788
vt 0.611306 0.111306
vt 0.553857 0.250000
vt 0.568788 0.325061
vt 0.611306 0.388694
vt 0.000000 1.000000
vt 0.943211 0.500000
vt 0.818211 0.500000
vt 0.693211 0.500000
vt 0.568211 0.500000
vt 0.380711 0.500000
vt 0.255711 0.500000
vt 0.193211 0.500000
vt 0.130711 0.500000
vt 0.068211 0.500000
vt 0.005711 0.500000
vn 0.3763 -0.1814 0.9086
vn 0.3544 -0.8653 0.3544
vn 0.6954 -0.1814 0.6954
vn 0.3096 0.5879 0.7474
vn 0.4735 0.7427 0.4735
vn 0.2563 0.7427 0.6187
vn 0.7474 0.5879 0.3096
vn 0.6187 0.7427 0.2563
vn 0.6696 0.7427 0.0000
vn 0.8089 0.5879 -0.0000
vn 0.6187 0.7427 -0.2563
vn 0.7474 0.5879 -0.3096
vn 0.4735 0.7427 -0.4735
vn 0.3096 0.5879 -0.7474
vn 0.2563 0.7427 -0.6187
vn -0.0000 0.7427 -0.6696
vn -0.0000 0.5879 -0.8089
vn -0.2563 0.7427 -0.6187
vn -0.5720 0.5879 -0.5720
vn -0.4735 0.7427 -0.4735
vn -0.6187 0.7427 -0.2562
vn -0.7474 0.5879 -0.3096
vn -0.6697 0.7427 -0.0000
vn -0.8089 0.5879 0.0000
vn -0.6187 0.7427 0.2563
vn -0.5720 0.5879 0.5720
vn -0.4735 0.7427 0.4735
vn -0.3543 -0.8653 0.3545
vn -0.3543 -0.8654 -0.3544
vn -0.3096 0.5879 0.7474
vn -0.2562 0.7427 0.6187
vn -0.0000 0.5879 0.8089
vn -0.0000 0.7427 0.6697
vn -0.3676 0.2780 0.8875
vn 0.0000 0.3710 0.9286
vn -0.3554 0.3710 0.8580
vn -0.0000 -0.8653 0.5012
vn -0.0000 -0.1813 0.9834
vn -0.3763 -0.1814 0.9086
vn -0.6954 -0.1814 0.6954
vn -0.4630 -0.8653 0.1918
vn -0.9086 -0.1814 0.3763
vn -0.5012 -0.8653 0.0000
vn -0.9834 -0.1813 -0.0000
vn -0.9086 -0.1813 -0.3763
vn -0.6954 -0.1814 -0.6954
vn -0.1918 -0.8653 -0.4630
vn -0.3763 -0.1814 -0.9086
vn -0.0000 -0.8654 -0.5012
vn -0.0000 -0.1813 -0.9834
vn 0.1919 -0.8653 -0.4630
vn 0.3763 -0.1814 -0.9086
vn 0.3543 -0.8654 -0.3544
vn 0.6954 -0.1814 -0.6954
vn 0.4630 -0.8653 -0.1918
vn 0.9086 -0.1814 -0.3763
vn 0.5012 -0.8653 0.0000
vn 0.9834 -0.1813 -0.0000
vn 0.4630 -0.8653 0.1918
vn 0.9086 -0.1814 0.3763
vn 0.6792 0.2780 0.6792
vn 0.8580 0.3710 0.3554
vn 0.6566 0.3710 0.6566
vn -0.6792 0.2780 0.6792
vn -0.6566 0.3710 0.6566
vn -0.8875 0.2780 0.3676
vn -0.8580 0.3710 0.3554
vn -0.9606 0.2780 -0.0000
vn -0.9286 0.3710 0.0000
vn -0.8875 0.2780 -0.3676
vn -0.8580 0.3710 -0.3554
vn -0.6792 0.2780 -0.6792
vn -0.6566 0.3710 -0.6566
vn -0.3676 0.2780 -0.8875
vn -0.3554 0.3710 -0.8580
vn 0.0000 0.3710 -0.9286
vn 0.3676 0.2780 -0.8875
vn 0.3554 0.3710 -0.8580
vn 0.6792 0.2780 -0.6792
vn 0.6566 0.3710 -0.6566
vn 0.8875 0.2780 -0.3676
vn 0.8580 0.3710 -0.3554
vn 0.9606 0.2780 0.0000
vn 0.9286 0.3710 -0.0000
vn 0.8875 0.2780 0.3676
vn 0.3676 0.2780 0.8875
vn 0.3554 0.3710 0.8580
vn 0.0000 0.2780 -0.9606
vn -0.0000 0.2780 0.9606
vn 0.3855 0.9088 0.1597
vn 0.1597 0.9088 -0.3855
vn -0.3855 0.9088 -0.1597
vn -0.7474 0.5879 0.3096
vn -0.3096 0.5879 -0.7474
vn 0.5720 0.5879 -0.5720
vn 0.5720 0.5879 0.5720
vn -0.1918 -0.8654 0.4630
vn 0.0000 0.9088 0.4172
vn 0.2950 0.9088 0.2950
vn 0.1597 0.9088 0.3855
vn 0.4172 0.9088 -0.0000
vn 0.2950 0.9088 -0.2950
vn 0.3855 0.9088 -0.1597
vn 0.0000 0.9088 -0.4172
vn -0.1597 0.9088 -0.3855
vn -0.2950 0.9088 -0.2950
vn -0.4172 0.9088 0.0000
vn -0.3855 0.9088 0.1597
vn -0.2950 0.9088 0.2950
vn -0.1597 0.9088 0.3855
vn 0.1918 -0.8654 0.4629
vn -0.4630 -0.8653 -0.1919
s 1
f 1/1/1 2/2/2 3/3/3
f 4/4/4 5/5/5 6/6/6
f 5/5/5 7/7/7 8/8/8
f 7/7/7 9/9/9 8/8/8
f 10/10/10 11/11/11 9/9/9
f 12/12/12 13/13/13 11/11/11
f 13/13/13 14/14/14 15/15/15
f 14/14/14 16/16/16 15/15/15
f 17/17/17 18/18/18 16/16/16
f 18/18/18 19/19/19 20/20/20
f 19/19/19 21/21/21 20/20/20
f 22/22/22 23/23/23 21/21/21
f 24/24/24 25/25/25 23/23/23
f 25/25/25 26/26/26 27/27/27
f 2/28/2 28/29/28 29/30/29
f 27/27/27 30/31/30 31/32/31
f 32/33/32 6/6/6 33/34/33
f 34/35/34 35/36/35 36/37/36
f 37/38/37 1/1/1 38/39/38
f 28/40/28 39/41/39 40/42/40
f 41/43/41 40/42/40 42/44/42
f 43/45/43 42/44/42 44/46/44
f 45/47/45 43/45/43 44/46/44
f 29/48/29 45/47/45 46/49/46
f 47/50/47 46/49/46 48/51/48
f 49/52/49 48/51/48 50/53/50
f 51/54/51 50/53/50 52/55/52
f 53/56/53 52/55/52 54/57/54
f 55/58/55 54/57/54 56/59/56
f 57/60/57 56/59/56 58/61/58
f 59/62/59 58/61/58 60/63/60
f 2/2/2 60/63/60 3/3/3
f 30/31/30 33/64/33 31/32/31
f 61/65/61 62/66/62 63/67/63
f 64/68/64 36/37/36 65/69/65
f 66/70/66 65/69/65 67/71/67
f 68/72/68 67/71/67 69/73/69
f 70/74/70 69/73/69 71/75/71
f 72/76/72 71/75/71 73/77/73
f 74/78/74 73/77/73 75/79/75
f 76/80/76 74/78/74 75/79/75
f 77/81/77 76/80/76 78/82/78
f 79/83/79 78/82/78 80/84/80
f 81/85/81 80/84/80 82/86/82
f 83/87/83 82/86/82 84/88/84
f 85/89/85 84/88/84 62/66/62
f 86/90/86 63/67/63 87/91/87
f 33/64/33 34/35/34 31/32/31
f 31/32/31 64/68/64 27/27/27
f 27/27/27 66/70/66 25/25/25
f 25/25/25 68/72/68 23/23/23
f 23/23/23 70/74/70 21/21/21
f 21/21/21 72/76/72 20/20/20
f 20/20/20 74/78/74 18/18/18
f 18/18/18 88/92/88 16/16/16
f 15/15/15 88/92/88 77/81/77
f 15/15/15 79/83/79 13/13/13
f 11/11/11 79/83/79 81/85/81
f 9/9/9 81/85/81 83/87/83
f 8/8/8 83/87/83 85/89/85
f 8/8/8 61/65/61 5/5/5
f 6/6/6 61/65/61 86/90/86
f 6/6/6 89/93/89 33/34/33
f 90/94/90 91/95/91 92/96/92
f 39/41/39 32/97/32 30/31/30
f 39/41/39 26/26/26 40/42/40
f 40/42/40 93/98/93 42/44/42
f 42/44/42 24/24/24 44/46/44
f 45/47/45 24/24/24 22/22/22
f 45/47/45 19/19/19 46/49/46
f 48/51/48 19/19/19 94/99/94
f 48/51/48 17/17/17 50/53/50
f 52/55/52 17/17/17 14/14/14
f 52/55/52 95/100/95 54/57/54
f 54/57/54 12/12/12 56/59/56
f 56/59/56 10/10/10 58/61/58
f 58/61/58 7/7/7 60/63/60
f 60/63/60 96/101/96 3/3/3
f 3/3/3 4/4/4 1/1/1
f 1/1/1 32/33/32 38/39/38
f 97/102/97 38/103/38 39/41/39
f 87/91/87 98/104/98 35/105/35
f 87/91/87 99/106/99 100/107/100
f 62/66/62 99/108/99 63/67/63
f 62/66/62 101/109/101 90/110/90
f 82/86/82 101/111/101 84/88/84
f 82/86/82 102/112/102 103/113/103
f 78/82/78 102/114/102 80/84/80
f 78/82/78 104/115/104 91/116/91
f 76/80/76 105/117/105 104/118/104
f 73/77/73 105/119/105 75/79/75
f 73/77/73 92/120/92 106/121/106
f 69/73/69 92/122/92 71/75/71
f 67/71/67 107/123/107 69/73/69
f 65/69/65 108/124/108 67/71/67
f 36/37/36 109/125/109 65/69/65
f 35/36/35 110/126/110 36/37/36
f 89/93/89 87/91/87 35/105/35
f 1/1/1 111/127/111 2/2/2
f 4/4/4 96/101/96 5/5/5
f 5/5/5 96/101/96 7/7/7
f 7/7/7 10/10/10 9/9/9
f 10/10/10 12/12/12 11/11/11
f 12/12/12 95/100/95 13/13/13
f 13/13/13 95/100/95 14/14/14
f 14/14/14 17/17/17 16/16/16
f 17/17/17 94/99/94 18/18/18
f 18/18/18 94/99/94 19/19/19
f 19/19/19 22/22/22 21/21/21
f 22/22/22 24/24/24 23/23/23
f 24/24/24 93/98/93 25/25/25
f 25/25/25 93/98/93 26/26/26
f 2/28/2 111/128/111 28/29/28
f 111/128/111 37/129/37 28/29/28
f 37/129/37 97/130/97 28/29/28
f 28/29/28 41/131/41 29/30/29
f 41/131/41 43/132/43 29/30/29
f 43/132/43 112/133/112 29/30/29
f 29/30/29 47/134/47 49/135/49
f 49/135/49 51/136/51 53/137/53
f 53/137/53 55/138/55 57/139/57
f 57/139/57 59/140/59 2/28/2
f 29/30/29 49/135/49 53/137/53
f 53/137/53 57/139/57 29/30/29
f 57/139/57 2/28/2 29/30/29
f 27/27/27 26/26/26 30/31/30
f 32/33/32 4/4/4 6/6/6
f 34/35/34 89/141/89 35/36/35
f 37/38/37 111/127/111 1/1/1
f 28/40/28 97/102/97 39/41/39
f 41/43/41 28/40/28 40/42/40
f 43/45/43 41/43/41 42/44/42
f 45/47/45 112/142/112 43/45/43
f 29/48/29 112/142/112 45/47/45
f 47/50/47 29/48/29 46/49/46
f 49/52/49 47/50/47 48/51/48
f 51/54/51 49/52/49 50/53/50
f 53/56/53 51/54/51 52/55/52
f 55/58/55 53/56/53 54/57/54
f 57/60/57 55/58/55 56/59/56
f 59/62/59 57/60/57 58/61/58
f 2/2/2 59/62/59 60/63/60
f 30/31/30 32/97/32 33/64/33
f 61/65/61 85/89/85 62/66/62
f 64/68/64 34/35/34 36/37/36
f 66/70/66 64/68/64 65/69/65
f 68/72/68 66/70/66 67/71/67
f 70/74/70 68/72/68 69/73/69
f 72/76/72 70/74/70 71/75/71
f 74/78/74 72/76/72 73/77/73
f 76/80/76 88/92/88 74/78/74
f 77/81/77 88/92/88 76/80/76
f 79/83/79 77/81/77 78/82/78
f 81/85/81 79/83/79 80/84/80
f 83/87/83 81/85/81 82/86/82
f 85/89/85 83/87/83 84/88/84
f 86/90/86 61/65/61 63/67/63
f 33/64/33 89/141/89 34/35/34
f 31/32/31 34/35/34 64/68/64
f 27/27/27 64/68/64 66/70/66
f 25/25/25 66/70/66 68/72/68
f 23/23/23 68/72/68 70/74/70
f 21/21/21 70/74/70 72/76/72
f 20/20/20 72/76/72 74/78/74
f 18/18/18 74/78/74 88/92/88
f 15/15/15 16/16/16 88/92/88
f 15/15/15 77/81/77 79/83/79
f 11/11/11 13/13/13 79/83/79
f 9/9/9 11/11/11 81/85/81
f 8/8/8 9/9/9 83/87/83
f 8/8/8 85/89/85 61/65/61
f 6/6/6 5/5/5 61/65/61
f 6/6/6 86/90/86 89/93/89
f 110/143/110 98/144/98 100/145/100
f 100/145/100 99/146/99 90/94/90
f 90/94/90 101/147/101 103/148/103
f 103/148/103 102/149/102 91/95/91
f 91/95/91 104/150/104 105/151/105
f 105/151/105 106/152/106 91/95/91
f 106/152/106 92/96/92 91/95/91
f 92/96/92 107/153/107 108/154/108
f 108/154/108 109/155/109 92/96/92
f 109/155/109 110/143/110 92/96/92
f 110/143/110 100/145/100 90/94/90
f 90/94/90 103/148/103 91/95/91
f 110/143/110 90/94/90 92/96/92
f 39/41/39 38/103/38 32/97/32
f 39/41/39 30/31/30 26/26/26
f 40/42/40 26/26/26 93/98/93
f 42/44/42 93/98/93 24/24/24
f 45/47/45 44/46/44 24/24/24
f 45/47/45 22/22/22 19/19/19
f 48/51/48 46/49/46 19/19/19
f 48/51/48 94/99/94 17/17/17
f 52/55/52 50/53/50 17/17/17
f 52/55/52 14/14/14 95/100/95
f 54/57/54 95/100/95 12/12/12
f 56/59/56 12/12/12 10/10/10
f 58/61/58 10/10/10 7/7/7
f 60/63/60 7/7/7 96/101/96
f 3/3/3 96/101/96 4/4/4
f 1/1/1 4/4/4 32/33/32
f 97/102/97 37/156/37 38/103/38
f 87/91/87 100/157/100 98/104/98
f 87/91/87 63/67/63 99/106/99
f 62/66/62 90/158/90 99/108/99
f 62/66/62 84/88/84 101/109/101
f 82/86/82 103/159/103 101/111/101
f 82/86/82 80/84/80 102/112/102
f 78/82/78 91/160/91 102/114/102
f 78/82/78 76/80/76 104/115/104
f 76/80/76 75/79/75 105/117/105
f 73/77/73 106/161/106 105/119/105
f 73/77/73 71/75/71 92/120/92
f 69/73/69 107/162/107 92/122/92
f 67/71/67 108/163/108 107/123/107
f 65/69/65 109/164/109 108/124/108
f 36/37/36 110/165/110 109/125/109
f 35/36/35 98/166/98 110/126/110
f 89/93/89 86/90/86 87/91/87
