# Blender v2.93.3 OBJ File: 'intenal_models.blend'
# www.blender.org
o Cube.002_Cube.006
v 0.158400 0.147181 -0.159022
v 0.158400 0.147181 0.159022
v -0.189851 -0.163846 -0.182799
v -0.158400 0.147181 0.159022
v 0.158400 0.980710 -0.159023
v 0.158400 0.980710 0.159021
v -0.158400 0.980710 -0.159023
v -0.158400 0.980710 0.159021
vt 0.375000 0.000000
vt 0.625000 0.250000
vt 0.375000 0.250000
vt 0.375000 0.500000
vt 0.625000 0.500000
vt 0.375000 0.750000
vt 0.625000 0.750000
vt 0.375000 1.000000
vt 0.125000 0.750000
vt 0.125000 0.500000
vt 0.875000 0.750000
vt 0.625000 0.000000
vt 0.625000 1.000000
vt 0.875000 0.500000
vn 0.5406 -0.6464 0.5385
vn -0.9973 0.0260 0.0681
vn 0.0000 1.0000 -0.0000
vn 1.0000 -0.0000 0.0000
vn 0.0509 0.0193 -0.9985
vn 0.0000 0.0000 1.0000
vn 0.0000 -1.0000 0.0000
vn -1.0000 0.0000 -0.0000
vn 0.0000 -0.0000 -1.0000
s off
f 1/1/1 4/2/1 3/3/1
f 4/2/2 7/4/2 3/3/2
f 8/5/3 5/6/3 7/4/3
f 6/7/4 1/8/4 5/6/4
f 7/4/5 1/9/5 3/10/5
f 8/5/6 2/11/6 6/7/6
f 1/1/7 2/12/7 4/2/7
f 4/2/8 8/5/8 7/4/8
f 8/5/3 6/7/3 5/6/3
f 6/7/4 2/13/4 1/8/4
f 7/4/9 5/6/9 1/9/9
f 8/5/6 4/14/6 2/11/6
